<?xml version="1.0" encoding="iso-8859-1"?>
<!-- Generator: Adobe Illustrator 19.0.0, SVG Export Plug-In . SVG Version: 6.00 Build 0)  -->
<svg version="1.1" id="Layer_1" xmlns="http://www.w3.org/2000/svg" xmlns:xlink="http://www.w3.org/1999/xlink" x="0px" y="0px"
	 viewBox="0 0 512.001 512.001" style="enable-background:new 0 0 512.001 512.001;" xml:space="preserve">
<path style="fill:#2D527C;" d="M297.317,429.896c-21.712,0-43.528-3.327-64.828-10.038c-54.746-17.25-99.498-54.787-126.012-105.697
	c-26.515-50.908-31.615-109.096-14.367-163.843c17.25-54.746,54.787-99.498,105.697-126.012
	c105.094-54.732,235.122-13.764,289.854,91.33c4.114,7.899,1.045,17.639-6.854,21.751c-7.897,4.114-17.637,1.047-21.751-6.854
	c-46.517-89.318-157.029-124.14-246.35-77.621c-43.27,22.535-75.172,60.57-89.834,107.1s-10.326,95.984,12.209,139.252
	c22.535,43.27,60.57,75.172,107.1,89.834c46.529,14.66,95.984,10.326,139.252-12.209c45.506-23.699,79.124-65.762,92.236-115.403
	c4.423-16.745,6.45-33.984,6.025-51.237c-0.219-8.903,6.82-16.299,15.723-16.52c8.934-0.195,16.299,6.82,16.52,15.723
	c0.501,20.3-1.882,40.576-7.084,60.27c-15.425,58.401-54.979,107.888-108.521,135.772
	C365.23,421.689,331.406,429.894,297.317,429.896z"/>
<circle style="fill:#CEE8FA;" cx="297.075" cy="214.896" r="111.099"/>
<g>
	<path style="fill:#2D527C;" d="M297.068,342.123c-70.152,0-127.225-57.073-127.225-127.225S226.917,87.673,297.068,87.673
		s127.225,57.073,127.225,127.225C424.293,285.051,367.22,342.123,297.068,342.123z M297.068,119.927
		c-52.368,0-94.973,42.605-94.973,94.973s42.604,94.973,94.973,94.973s94.973-42.604,94.973-94.973S349.436,119.927,297.068,119.927
		z"/>
	<path style="fill:#2D527C;" d="M56.527,511.968c-14.941,0-29.333-5.921-39.97-16.557C5.035,483.888-0.955,467.953,0.124,451.695
		c1.079-16.26,9.123-31.262,22.067-41.162l66.072-50.525c6.421-4.91,15.484-4.307,21.199,1.406l41.091,41.091
		c5.715,5.715,6.317,14.78,1.406,21.199l-50.525,66.072c-9.9,12.944-24.902,20.988-41.162,22.067
		C59.023,511.926,57.772,511.968,56.527,511.968z M96.639,394.202l-54.856,41.949c-5.643,4.314-9.006,10.592-9.477,17.677
		c-0.471,7.086,2.035,13.754,7.057,18.776c5.022,5.022,11.685,7.528,18.776,7.057c7.086-0.471,13.364-3.835,17.676-9.476
		l41.95-54.858L96.639,394.202z"/>
</g>
<g>
</g>
<g>
</g>
<g>
</g>
<g>
</g>
<g>
</g>
<g>
</g>
<g>
</g>
<g>
</g>
<g>
</g>
<g>
</g>
<g>
</g>
<g>
</g>
<g>
</g>
<g>
</g>
<g>
</g>
</svg>
